<svg width="24" height="26" viewBox="0 0 24 26" fill="none" xmlns="http://www.w3.org/2000/svg">
<path d="M12 20.502C10.6367 20.502 9.32917 19.9604 8.36513 18.9963C7.4011 18.0323 6.85951 16.7248 6.85951 15.3614M12 25C17.2704 25 21.6385 21.0636 21.6385 16.0953C21.6385 12.9917 20.054 9.85089 18.2625 7.27677C16.4594 4.68467 14.3788 2.5732 13.2569 1.50525C12.9188 1.18103 12.4685 1 12 1C11.5316 1 11.0813 1.18103 10.7432 1.50525C9.62127 2.57191 7.54065 4.68467 5.73761 7.27677C3.94614 9.85089 2.36157 12.9917 2.36157 16.0953C2.36157 21.0636 6.72973 25 12 25Z" stroke="#08003D" stroke-width="1.5" stroke-linecap="round"/>
</svg>
