<svg width="26" height="26" viewBox="0 0 26 26" fill="none" xmlns="http://www.w3.org/2000/svg">
<path d="M18.2234 9.59189C17.7794 8.2806 17.0343 7.16332 16.0824 6.38134C15.1304 5.59936 14.0143 5.18781 12.8752 5.19872C11.7362 5.20963 10.6252 5.64252 9.68298 6.44264C8.74072 7.24276 8.00943 8.37418 7.58158 9.69382M12.791 17.0903L16.6402 10.378M16.4095 17.1208C16.4095 19.2257 14.7031 20.9321 12.5982 20.9321C10.4933 20.9321 8.78699 19.2257 8.78699 17.1208C8.78699 15.0159 10.4933 13.3096 12.5982 13.3096C14.7031 13.3096 16.4095 15.0159 16.4095 17.1208ZM25 13C25 19.6274 19.6274 25 13 25C6.37258 25 1 19.6274 1 13C1 6.37258 6.37258 1 13 1C19.6274 1 25 6.37258 25 13Z" stroke="#08003D" stroke-width="1.5" stroke-linecap="round"/>
</svg>
