<svg width="24" height="24" viewBox="0 0 24 24" fill="none" xmlns="http://www.w3.org/2000/svg">
<path d="M1 13.4134C1 13.6353 1.08319 13.8294 1.25882 13.9866C1.40672 14.1622 1.60084 14.2454 1.84118 14.2454H15.4202C15.6882 14.2454 15.9101 14.3378 16.095 14.5227C16.2798 14.7076 16.3723 14.9387 16.3723 15.2067C16.3723 15.4748 16.2798 15.6966 16.095 15.8723C15.9101 16.0479 15.6882 16.1403 15.4109 16.1403C15.1429 16.1403 14.9118 16.0479 14.7361 15.8723C14.6674 15.7935 14.5819 15.731 14.486 15.6894C14.39 15.6478 14.286 15.6282 14.1815 15.6319C13.9504 15.6319 13.7563 15.7151 13.5899 15.8723C13.4235 16.0294 13.3403 16.2235 13.3403 16.4361C13.3403 16.6672 13.4235 16.8613 13.5992 17.0185C14.1168 17.5269 14.7269 17.7857 15.4109 17.7857C16.1319 17.7857 16.7513 17.5361 17.2689 17.037C17.7866 16.5378 18.0361 15.937 18.0361 15.216C18.0361 14.495 17.7773 13.8849 17.2597 13.3672C16.742 12.8496 16.1227 12.5908 15.4109 12.5908H1.84118C1.7316 12.5899 1.62293 12.6107 1.5214 12.6519C1.41988 12.6931 1.3275 12.754 1.24958 12.8311C1.08319 12.9882 1 13.1824 1 13.4134ZM1 10.3815C1 10.5941 1.08319 10.779 1.25882 10.9454C1.41597 11.1118 1.61008 11.1857 1.84118 11.1857H20.3655C21.0866 11.1857 21.7059 10.9361 22.2235 10.4277C22.7412 9.92857 23 9.31849 23 8.60672C23 7.89496 22.7412 7.27563 22.2235 6.76723C21.7059 6.25882 21.0866 6 20.3655 6C19.6538 6 19.0529 6.24958 18.563 6.7395C18.3966 6.8874 18.3134 7.09076 18.3134 7.35882C18.3134 7.59916 18.3966 7.79328 18.5538 7.94118C18.7109 8.08908 18.905 8.16303 19.1361 8.16303C19.358 8.16303 19.5521 8.08908 19.7185 7.94118C19.8941 7.74706 20.1067 7.65462 20.3655 7.65462C20.6336 7.65462 20.8555 7.74706 21.0403 7.93193C21.2252 8.11681 21.3176 8.33866 21.3176 8.60672C21.3176 8.87479 21.2252 9.09664 21.0403 9.27227C20.8555 9.4479 20.6336 9.54034 20.3655 9.54034H1.84118C1.61808 9.54034 1.40413 9.62896 1.24637 9.78671C1.08862 9.94446 1 10.1584 1 10.3815Z" fill="#08003D"/>
</svg>
